<svg width="249" height="35" viewBox="0 0 249 35" fill="none" xmlns="http://www.w3.org/2000/svg">
<path d="M52.418 0H15.9516V4.74609C15.9516 5.62054 15.244 6.32812 14.3696 6.32812C13.4951 6.32812 12.7876 5.62054 12.7876 4.74609V0H1.58203C0.695988 0 0 0.695988 0 1.58203V11.0742C0 11.9601 0.695988 12.6562 1.58203 12.6562C4.20831 12.6562 6.32812 14.7761 6.32812 17.4023C6.32812 20.0284 4.20831 22.1484 1.58203 22.1484C0.695988 22.1484 0 22.8444 0 23.7305V33.2227C0 34.1085 0.695988 34.8047 1.58203 34.8047H12.6562V30.0586C12.6562 29.1842 13.3638 28.4766 14.2383 28.4766C15.1127 28.4766 15.8203 29.1842 15.8203 30.0586V34.8047H52.418C53.304 34.8047 54 34.1085 54 33.2227V1.58203C54 0.695988 53.304 0 52.418 0ZM15.8203 23.7305C15.8203 24.6049 15.1127 25.3125 14.2383 25.3125C13.3638 25.3125 12.6562 24.6049 12.6562 23.7305V20.5664C12.6562 19.692 13.3638 18.9844 14.2383 18.9844C15.1127 18.9844 15.8203 19.692 15.8203 20.5664V23.7305ZM15.8203 14.2383C15.8203 15.1127 15.1127 15.8203 14.2383 15.8203C13.3638 15.8203 12.6562 15.1127 12.6562 14.2383V11.0742C12.6562 10.1998 13.3638 9.49219 14.2383 9.49219C15.1127 9.49219 15.8203 10.1998 15.8203 11.0742V14.2383Z" fill="#FD4E26"/>
<path d="M6.32812 17.4023C6.32812 20.0284 4.20831 22.1484 1.58203 22.1484C0.695988 22.1484 0 22.8444 0 23.7305V33.2227C0 34.1085 0.695988 34.8047 1.58203 34.8047H12.6562V30.0586C12.6562 29.1842 13.3638 28.4766 14.2383 28.4766C15.1127 28.4766 15.8203 29.1842 15.8203 30.0586V34.8047H52.418C53.304 34.8047 54 34.1085 54 33.2227V17.4023H6.32812ZM15.8203 23.7305C15.8203 24.6049 15.1127 25.3125 14.2383 25.3125C13.3638 25.3125 12.6562 24.6049 12.6562 23.7305V20.5664C12.6562 19.692 13.3638 18.9844 14.2383 18.9844C15.1127 18.9844 15.8203 19.692 15.8203 20.5664V23.7305Z" fill="#FD3018"/>
<path d="M30.2695 15.8203C27.6524 15.8203 25.5234 13.6913 25.5234 11.0742C25.5234 8.45712 27.6524 6.32812 30.2695 6.32812C32.8866 6.32812 35.0156 8.45712 35.0156 11.0742C35.0156 13.6913 32.8866 15.8203 30.2695 15.8203Z" fill="#FEDB41"/>
<path d="M42.9258 28.4766C40.3087 28.4766 38.1797 26.3476 38.1797 23.7305C38.1797 21.1134 40.3087 18.9844 42.9258 18.9844C45.5429 18.9844 47.6719 21.1134 47.6719 23.7305C47.6719 26.3476 45.5429 28.4766 42.9258 28.4766Z" fill="#FCBF29"/>
<path d="M44.2545 8.79597L38.5276 17.4023L36.5975 20.2815L31.5982 27.7803C31.1237 28.4765 30.1429 28.698 29.3834 28.2233C28.6558 27.7172 28.4659 26.7363 28.9405 26.0085L34.6675 17.4023L36.5975 14.5229L41.5969 7.02409C42.103 6.29646 43.0839 6.10662 43.8117 6.58112C44.5393 7.08748 44.7292 8.06834 44.2545 8.79597Z" fill="#FEDB41"/>
<path d="M38.5276 17.4023L36.5975 20.2815L31.5982 27.7804C31.1237 28.4766 30.1429 28.698 29.3834 28.2233C28.6558 27.7172 28.4659 26.7363 28.9405 26.0085L34.6675 17.4023H38.5276Z" fill="#FCBF29"/>
<path d="M69.3715 20.5437H63.6214V30.3005H58V3.16568H69.794C72.5128 3.16568 74.6806 3.86522 76.2972 5.2643C77.9138 6.66338 78.7221 8.8295 78.7221 11.7627C78.7221 14.9658 77.9138 17.2301 76.2972 18.5556C74.6806 19.881 72.372 20.5437 69.3715 20.5437ZM72.0168 14.8922C72.7517 14.2417 73.1191 13.2108 73.1191 11.7995C73.1191 10.3881 72.7455 9.38177 71.9985 8.78041C71.2636 8.17905 70.2288 7.87837 68.8938 7.87837H63.6214V15.8679H68.8938C70.2288 15.8679 71.2698 15.5426 72.0168 14.8922Z" fill="#2252C1"/>
<path d="M92.6104 15.0763C90.5039 15.0763 89.0893 15.7635 88.3667 17.1381C87.9626 17.9112 87.7605 19.1017 87.7605 20.7094V30.3005H82.4881V10.2347H87.4849V13.7324C88.2933 12.3947 88.9975 11.4804 89.5976 10.9895C90.5773 10.1672 91.851 9.75608 93.4187 9.75608C93.5167 9.75608 93.5963 9.76222 93.6575 9.77449C93.731 9.77449 93.8841 9.78063 94.1168 9.7929V15.1683C93.7861 15.1315 93.4922 15.1069 93.235 15.0947C92.9778 15.0824 92.7696 15.0763 92.6104 15.0763Z" fill="#2252C1"/>
<path d="M113.902 12.7751C115.592 14.8983 116.437 17.4081 116.437 20.3044C116.437 23.2498 115.592 25.7719 113.902 27.8705C112.212 29.9568 109.646 31 106.205 31C102.763 31 100.197 29.9568 98.5074 27.8705C96.8173 25.7719 95.9722 23.2498 95.9722 20.3044C95.9722 17.4081 96.8173 14.8983 98.5074 12.7751C100.197 10.652 102.763 9.5904 106.205 9.5904C109.646 9.5904 112.212 10.652 113.902 12.7751ZM106.186 14.027C104.655 14.027 103.474 14.5731 102.641 15.6654C101.82 16.7453 101.41 18.2917 101.41 20.3044C101.41 22.3171 101.82 23.8696 102.641 24.9619C103.474 26.0541 104.655 26.6003 106.186 26.6003C107.717 26.6003 108.893 26.0541 109.713 24.9619C110.534 23.8696 110.944 22.3171 110.944 20.3044C110.944 18.2917 110.534 16.7453 109.713 15.6654C108.893 14.5731 107.717 14.027 106.186 14.027Z" fill="#2252C1"/>
<path d="M131.446 15.7574C131.005 14.7879 130.142 14.3031 128.856 14.3031C127.362 14.3031 126.357 14.7879 125.843 15.7574C125.561 16.3097 125.42 17.1319 125.42 18.2242V30.3005H120.111V10.2715H125.2V13.1986C125.849 12.1554 126.461 11.4129 127.037 10.9711C128.054 10.1856 129.37 9.7929 130.987 9.7929C132.518 9.7929 133.755 10.1304 134.698 10.8054C135.457 11.4313 136.033 12.2352 136.424 13.217C137.11 12.0388 137.961 11.1736 138.978 10.6213C140.056 10.069 141.256 9.7929 142.579 9.7929C143.46 9.7929 144.33 9.96472 145.187 10.3084C146.045 10.652 146.822 11.2533 147.52 12.1124C148.084 12.812 148.463 13.6711 148.659 14.6897C148.782 15.3647 148.843 16.3526 148.843 17.6535L148.806 30.3005H143.442V17.5247C143.442 16.7638 143.32 16.1378 143.075 15.6469C142.609 14.7142 141.752 14.2479 140.503 14.2479C139.058 14.2479 138.059 14.8492 137.508 16.0519C137.227 16.6901 137.086 17.4572 137.086 18.3531V30.3005H131.813V18.3531C131.813 17.1626 131.691 16.2974 131.446 15.7574Z" fill="#2252C1"/>
<path d="M170.373 12.7751C172.064 14.8983 172.909 17.4081 172.909 20.3044C172.909 23.2498 172.064 25.7719 170.373 27.8705C168.683 29.9568 166.118 31 162.676 31C159.235 31 156.669 29.9568 154.979 27.8705C153.289 25.7719 152.444 23.2498 152.444 20.3044C152.444 17.4081 153.289 14.8983 154.979 12.7751C156.669 10.652 159.235 9.5904 162.676 9.5904C166.118 9.5904 168.683 10.652 170.373 12.7751ZM162.658 14.027C161.127 14.027 159.945 14.5731 159.112 15.6654C158.292 16.7453 157.881 18.2917 157.881 20.3044C157.881 22.3171 158.292 23.8696 159.112 24.9619C159.945 26.0541 161.127 26.6003 162.658 26.6003C164.189 26.6003 165.364 26.0541 166.185 24.9619C167.006 23.8696 167.416 22.3171 167.416 20.3044C167.416 18.2917 167.006 16.7453 166.185 15.6654C165.364 14.5731 164.189 14.027 162.658 14.027Z" fill="#2252C1"/>
<path d="M195.045 30.3005H188.726L183.931 21.7219L181.763 23.9862V30.3005H176.62V3.25773H181.763V17.8744L188.285 10.3268H194.77L187.771 18.0033L195.045 30.3005Z" fill="#2252C1"/>
<path d="M214.316 12.7751C216.006 14.8983 216.851 17.4081 216.851 20.3044C216.851 23.2498 216.006 25.7719 214.316 27.8705C212.626 29.9568 210.06 31 206.619 31C203.177 31 200.612 29.9568 198.922 27.8705C197.231 25.7719 196.386 23.2498 196.386 20.3044C196.386 17.4081 197.231 14.8983 198.922 12.7751C200.612 10.652 203.177 9.5904 206.619 9.5904C210.06 9.5904 212.626 10.652 214.316 12.7751ZM206.6 14.027C205.07 14.027 203.888 14.5731 203.055 15.6654C202.234 16.7453 201.824 18.2917 201.824 20.3044C201.824 22.3171 202.234 23.8696 203.055 24.9619C203.888 26.0541 205.07 26.6003 206.6 26.6003C208.131 26.6003 209.307 26.0541 210.128 24.9619C210.948 23.8696 211.358 22.3171 211.358 20.3044C211.358 18.2917 210.948 16.7453 210.128 15.6654C209.307 14.5731 208.131 14.027 206.6 14.027Z" fill="#2252C1"/>
<path d="M238.841 3.2025V30.3005H233.752V27.5207C233.005 28.7112 232.154 29.5764 231.199 30.1164C230.244 30.6564 229.056 30.9264 227.635 30.9264C225.296 30.9264 223.324 29.9814 221.72 28.0914C220.127 26.1891 219.331 23.753 219.331 20.783C219.331 17.359 220.115 14.6651 221.683 12.7015C223.263 10.7379 225.369 9.75608 228.002 9.75608C229.215 9.75608 230.293 10.0261 231.236 10.5661C232.179 11.0938 232.944 11.8302 233.532 12.7751V3.2025H238.841ZM224.732 20.3965C224.732 22.2496 225.1 23.7285 225.835 24.833C226.557 25.9498 227.659 26.5082 229.141 26.5082C230.623 26.5082 231.75 25.9559 232.521 24.8514C233.293 23.7469 233.679 22.3171 233.679 20.5621C233.679 18.1076 233.06 16.3526 231.823 15.2972C231.064 14.659 230.182 14.3399 229.178 14.3399C227.647 14.3399 226.52 14.9229 225.798 16.0888C225.087 17.2424 224.732 18.6783 224.732 20.3965Z" fill="#2252C1"/>
<path d="M249 10.2347V30.3005H243.691V10.2347H249ZM249 3V7.84155H243.691V3H249Z" fill="#2252C1"/>
</svg>
